<svg width="57" height="104" xmlns="http://www.w3.org/2000/svg"><g id="Page-1" stroke="none" stroke-width="1" fill="none" fill-rule="evenodd"><g id="About-Us" transform="translate(-1596 -1270)" fill="#D9D9D9" fill-rule="nonzero"><g id="Asset-10" transform="scale(-1 1) rotate(-25 2080.321 4405.08)"><path d="M8.478 93.696a114.253 114.253 0 0013.972 2.77c2.21.39 7.384 2.473 9.426.338 1.71-1.788.09-5.104-.42-6.996-1.387-5.128-2.673-10.29-4.218-15.374a1.037 1.037 0 00-1.984.51c.685 3.48 1.487 6.933 2.24 10.397.153.704 1.394 5.198 1.755 7.441C15.643 76.797 1.596 55.972 4.897 33.651 8.4 9.977 40.435-3.907 60.756 6.814c.993.525 1.979-1.132 1.006-1.728C42.173-6.91 12.96 4.439 3.667 24.904c-5.1 11.232-2.537 24.074 1.158 35.32 3.914 11.914 12.638 25.07 22.559 33.33-2.04-.503-6.43-1.11-7.159-1.25A89.426 89.426 0 009.348 90.46c-1.783-.118-2.813 2.636-.87 3.237z" id="Shape"/></g></g></g></svg>