<svg xmlns="http://www.w3.org/2000/svg" xmlns:xlink="http://www.w3.org/1999/xlink" width="18" height="17"><defs><path id="xqn4a" d="M1260.455 2175.126a.513.513 0 00-.515.515v4.683a2.31 2.31 0 01-2.307 2.307h-11.296a2.31 2.31 0 01-2.307-2.307v-4.76a.513.513 0 00-.515-.514.513.513 0 00-.515.515v4.76a3.34 3.34 0 003.337 3.336h11.296a3.34 3.34 0 003.336-3.337v-4.683a.515.515 0 00-.514-.515z"/><path id="xqn4b" d="M1251.627 2179.576a.504.504 0 00.725 0l3.272-3.272a.513.513 0 000-.729.513.513 0 00-.728 0l-2.391 2.395v-10.445a.513.513 0 00-.515-.515.513.513 0 00-.515.515v10.445l-2.395-2.395a.513.513 0 00-.728 0 .513.513 0 000 .729z"/></defs><use fill="#fff" xlink:href="#xqn4a" transform="translate(-1243 -2167)"/><use fill="#fff" xlink:href="#xqn4b" transform="translate(-1243 -2167)"/></svg>