<svg xmlns="http://www.w3.org/2000/svg" xmlns:xlink="http://www.w3.org/1999/xlink" width="30" height="30"><defs><path id="r7ema" d="M335.648 532.277a2.495 2.495 0 012.492 2.491 2.495 2.495 0 01-2.492 2.492 2.495 2.495 0 01-2.491-2.492 2.495 2.495 0 012.491-2.491zm0 5.98a3.493 3.493 0 003.489-3.489 3.493 3.493 0 00-3.489-3.488 3.493 3.493 0 00-3.488 3.488 3.493 3.493 0 003.488 3.489z"/><path id="r7emb" d="M330.034 528.494a8.335 8.335 0 015.966-2.5c2.253 0 4.372.888 5.966 2.5 2.971 3.006 3.337 8.664.772 12.124L336 550.463l-6.75-9.86c-2.554-3.445-2.188-9.103.784-12.11zM336 552.209l7.535-11.01c2.826-3.812 2.418-10.077-.875-13.407A9.302 9.302 0 00336 525a9.304 9.304 0 00-6.661 2.791c-3.292 3.33-3.701 9.596-.886 13.393z"/><path id="r7emc" d="M342.058 546.634a.497.497 0 00-.555.431.494.494 0 00.438.547c5.258.61 8.059 2.252 8.059 3.204 0 1.337-5.326 3.201-14 3.201s-14-1.864-14-3.2c0-.953 2.8-2.595 8.058-3.205a.494.494 0 00.438-.547.497.497 0 00-.555-.431c-5.264.61-8.941 2.33-8.941 4.182 0 2.08 5.152 4.186 15 4.186 9.847 0 15-2.106 15-4.186 0-1.852-3.677-3.572-8.942-4.182z"/></defs><use fill="#e31936" xlink:href="#r7ema" transform="translate(-321 -525)"/><use fill="#e31936" xlink:href="#r7emb" transform="translate(-321 -525)"/><use fill="#e31936" xlink:href="#r7emc" transform="translate(-321 -525)"/></svg>