<svg xmlns="http://www.w3.org/2000/svg" viewBox="0 0 470.71 278.77"><defs><style>.cls-1,.cls-6{fill:#dc0b2a}.cls-2,.cls-3,.cls-4,.cls-9{fill:#fff}.cls-2,.cls-3,.cls-4,.cls-6,.cls-8{stroke:#1d1d1b;stroke-miterlimit:10}.cls-2,.cls-4,.cls-6,.cls-8{stroke-width:.75px}.cls-3{stroke-width:.62px}.cls-4,.cls-6,.cls-8,.cls-9{fill-rule:evenodd}.cls-8{fill:#f7f8f9}.cls-12{fill:#efeeef}</style></defs><g id="Layer_2" data-name="Layer 2"><g id="_ÎÓÈ_1" data-name="—ÎÓÈ_1"><circle class="cls-1" cx="416.75" cy="173.69" r="16.32"/><path class="cls-2" d="M434.76 153c-.57-.14-2.56.87-4.51 2.4a21.66 21.66 0 00-5.59-2.93c.31-2.15.41-4.45-.4-5.17-1.63-1.44-7.57-1.35-8.35-.86-.51.31-1.22 2.5-1.51 5a21.5 21.5 0 00-6 1.76c-1.3-1.74-2.86-3.45-3.94-3.39-2.18.14-6.31 4.4-6.52 5.3-.13.56.87 2.54 2.39 4.49a21.85 21.85 0 00-3.15 5.57c-2.08-.28-4.24-.34-4.93.43-1.45 1.64-1.35 7.57-.87 8.36.29.47 2.21 1.11 4.5 1.44a21.58 21.58 0 001.77 6.46c-1.55 1.21-2.93 2.57-2.87 3.54.13 2.18 4.4 6.31 5.3 6.52.5.12 2.15-.67 3.9-1.94a21.47 21.47 0 006.08 3.4c-.2 1.85-.18 3.62.51 4.24 1.63 1.44 7.57 1.35 8.35.86.44-.27 1-1.92 1.36-4a21.51 21.51 0 006.74-2c1.16 1.45 2.43 2.68 3.35 2.63 2.18-.14 6.31-4.4 6.52-5.3.12-.51-.68-2.16-1.95-3.91a21.58 21.58 0 003.15-6.1c1.94.23 3.85.24 4.49-.48 1.45-1.64 1.35-7.57.87-8.36-.29-.47-2.22-1.12-4.53-1.44a21.68 21.68 0 00-2-6.24c1.65-1.27 3.2-2.74 3.14-3.76-.14-2.16-4.4-6.29-5.3-6.52zm-11.17 27.51a9.71 9.71 0 111.41-13.64 9.71 9.71 0 01-1.41 13.66z"/><path class="cls-2" d="M426.11 183.51a13.83 13.83 0 112-19.45 13.84 13.84 0 01-2 19.45zM408.8 162.2a13.63 13.63 0 1019.17 2 13.64 13.64 0 00-19.17-2z"/><circle class="cls-1" cx="154.53" cy="84.73" r="17.82"/><path class="cls-3" d="M170.2 59.46c-.64 0-2.55 1.48-4.31 3.54a23.6 23.6 0 00-6.61-1.92c-.14-2.37-.53-4.85-1.54-5.44-2.06-1.19-8.39.19-9.13.88-.47.45-.76 2.94-.52 5.7a23.94 23.94 0 00-6 3.18c-1.77-1.58-3.81-3.07-5-2.77-2.3.62-5.79 6.07-5.83 7.08 0 .63 1.48 2.53 3.53 4.29a23.48 23.48 0 00-2.16 6.64c-2.29.15-4.62.55-5.18 1.53-1.2 2.06.19 8.39.88 9.13.41.43 2.59.71 5.12.56a23.45 23.45 0 003.29 6.53c-1.39 1.64-2.57 3.39-2.3 4.42.61 2.3 6.07 5.79 7.08 5.82.56 0 2.16-1.18 3.75-2.92a23.47 23.47 0 007.24 2.32c.18 2 .59 3.92 1.46 4.42 2.07 1.2 8.39-.19 9.13-.88.41-.38.68-2.28.59-4.56a23.59 23.59 0 006.77-3.63c1.56 1.29 3.18 2.34 4.15 2.08 2.3-.61 5.8-6.07 5.83-7.08 0-.57-1.19-2.17-2.94-3.76a23.75 23.75 0 002.06-7.21c2.12-.17 4.17-.58 4.7-1.49 1.19-2.06-.2-8.39-.89-9.12-.41-.44-2.61-.72-5.16-.57a23.59 23.59 0 00-3.48-6.23c1.49-1.71 2.83-3.62 2.54-4.7-.61-2.3-6.06-5.81-7.07-5.84zm-6 31.85a10.6 10.6 0 11-1.44-14.92 10.6 10.6 0 011.45 14.92z"/><path class="cls-3" d="M167.55 94a15.09 15.09 0 11-2.06-21.24A15.11 15.11 0 01167.55 94zm-23.14-19a14.88 14.88 0 1021-2 14.9 14.9 0 00-21 1.9z"/><path class="cls-4" d="M130.77 161.87a3.19 3.19 0 01.27 1.6l-8.49 99.36a3.92 3.92 0 01-3.82 3.75l-26.22-.19h-.1l-7.41-.06h-4.16a3.91 3.91 0 01-3.64-3.8l-7.56-99.43v-.8h-1.5L68 162h-.37l-.12-.08-.11-.08-.16-.13-.1-.1v-.05l-.1-.1v-.11l-.08-.11-.07-.12v-.18l-.06-.13v-5.72l.06-.3v-.43l.1-.28v-.27l.06-.14.07-.13.06-.13.07-.13.07-.13.07-.13.08-.12.08-.12.08-.12.08-.12.09-.12.09-.11.09-.11.1-.11.1-.11.1-.1.1-.1.1-.1.11-.1.11-.09.11-.09.12-.08.12-.09.12-.08.12-.08.12-.08.13-.08.12-.07.13-.07.13-.06.14-.07.13-.06.14-.05.14-.06h2.07l17.31-.47 14.19-.07h.07l23.39-.13a6 6 0 016 6v3.2a2.9 2.9 0 01-2.73 2.87zm-86.25-61.53a5.7 5.7 0 00-3.29 7.32l13.14 34.57a5.68 5.68 0 007.31 3.28A5.68 5.68 0 0065 138.2l-13.17-34.57a5.68 5.68 0 00-7.31-3.29z"/><path class="cls-4" d="M68.65 143.12l33.77.25a3.68 3.68 0 013.73 3.8l-8.49 99.36a3.91 3.91 0 01-3.82 3.75L60.06 250a3.94 3.94 0 003.73-3.75l8.49-99.36a3.67 3.67 0 00-3.63-3.77z"/><path class="cls-4" d="M71.35 246.34a3.94 3.94 0 01-3.73 3.75h-.1L56 250h-.1a3.9 3.9 0 01-3.63-3.81l-7.57-99.47a3.7 3.7 0 013.73-3.72h.1l27.58.21h.09"/><path d="M75.84 164.58a11.94 11.94 0 0112 12 12.1 12.1 0 01-12 12.09 11.94 11.94 0 01-12-12 12.09 12.09 0 0112-12.09z" stroke-width=".61" fill-rule="evenodd" stroke="#1d1d1b" stroke-miterlimit="10" fill="#fff"/><path class="cls-4" d="M47.4 133.81l55.21-.29a6 6 0 016 6v3.15a2.91 2.91 0 01-2.88 2.9l-61.53.32a2.87 2.87 0 01-2.84-2.89v-3.15a6.09 6.09 0 016.04-6.04z"/><path class="cls-6" d="M75.84 169.17a7.39 7.39 0 017.44 7.39 7.49 7.49 0 01-7.44 7.44 7.39 7.39 0 01-7.43-7.4 7.48 7.48 0 017.43-7.43z"/><rect class="cls-2" x="46.29" y="137.11" width="8.01" height="5.05" rx="2.53" ry="2.53"/><rect class="cls-2" x="356.76" y="225.06" width="15.81" height="14.81" rx="5.33" ry="5.33"/><rect class="cls-2" x="172.56" y="225.06" width="15.81" height="14.81" rx="5.33" ry="5.33"/><path class="cls-4" d="M155.64 229.51H402.3a10.75 10.75 0 0010.38-9.35l19.16-173.63a11 11 0 00-11.09-12.47H180.33a14.32 14.32 0 00-13.84 12.47l-19.17 173.63a8.24 8.24 0 008.32 9.35z"/><path class="cls-4" d="M149.28 229.51h246.66a10.75 10.75 0 0010.38-9.35l19.16-173.63a11 11 0 00-11.09-12.47H174a14.32 14.32 0 00-13.84 12.47L141 220.16a8.24 8.24 0 008.28 9.35z"/><path d="M149.28 221.68h246.66a3 3 0 002.59-2.38l19.16-173.63a3.17 3.17 0 00-3.3-3.78H174a6.5 6.5 0 00-6.05 5.5L148.75 221c-.05.5.05.68.53.68z" fill="#f7f8f9" fill-rule="evenodd"/><path class="cls-4" d="M412.68 91.09L417 51.98H167.41l-4.32 39.11h249.59z"/><rect class="cls-2" x="168.55" y="225.06" width="15.81" height="14.81" rx="5.33" ry="5.33"/><rect class="cls-2" x="352.76" y="225.06" width="15.81" height="14.81" rx="5.33" ry="5.33"/><rect class="cls-2" x="32.44" y="232.52" width="354.44" height="6.3" rx="3.15" ry="3.15"/><path class="cls-4" d="M17.45 235.67h267.94a7.63 7.63 0 017.61 7.6 7.63 7.63 0 01-7.61 7.61H17.45a7.63 7.63 0 01-7.61-7.61 7.62 7.62 0 017.61-7.6z"/><path class="cls-4" d="M70.73 235.67h80.58a7.63 7.63 0 01-7.61 7.61H78.33a7.63 7.63 0 01-7.6-7.61zm158.19 0h174a7.62 7.62 0 017.61 7.6 7.63 7.63 0 01-7.61 7.61h-174a7.62 7.62 0 01-7.6-7.61 7.62 7.62 0 017.6-7.6z"/><path class="cls-4" d="M339 239.87h13.57a3.23 3.23 0 013.23 3.23 3.24 3.24 0 01-3.23 3.23H339a3.24 3.24 0 01-3.23-3.23 3.23 3.23 0 013.23-3.23zm-103.12 0h83.6a3.24 3.24 0 013.23 3.23 3.25 3.25 0 01-3.23 3.23h-83.6a3.24 3.24 0 01-3.22-3.23 3.23 3.23 0 013.22-3.23zm136.36 0h.89a3.23 3.23 0 013.22 3.23 3.24 3.24 0 01-3.22 3.23h-.89a3.24 3.24 0 01-3.24-3.23 3.23 3.23 0 013.24-3.23zm12.46 0h.9a3.23 3.23 0 013.22 3.23 3.24 3.24 0 01-3.22 3.23h-.9a3.24 3.24 0 01-3.22-3.23 3.23 3.23 0 013.22-3.23z"/><path class="cls-8" d="M145.3 186a34.83 34.83 0 00-32.81 46.49h65.62A34.83 34.83 0 00145.3 186z"/><path class="cls-9" d="M170.08 198.31a34.88 34.88 0 00-14.64-9.5 38.85 38.85 0 00-6.93-1.17c-12.62-1-22.86 4.26-22.86 11.69s10.24 14.25 22.86 15.23 22.86-4.26 22.86-11.69a9.11 9.11 0 00-1.29-4.56z"/><path class="cls-8" d="M170.61 197.38a26.35 26.35 0 00-24.81 35.14h49.61a26.35 26.35 0 00-24.8-35.14z"/><path d="M395.83 109.79c.07-.5-.34-.86-1-.86h-75.12a1.9 1.9 0 00-1.89 1.26q-3.56 23.67-7.1 47.35c-.08.51.34.87 1 .87h75.08a1.91 1.91 0 001.89-1.26zM195.58 99c12.39 0 21.3 10 19.9 22.43s-12.57 22.43-25 22.43-21.29-10-19.9-22.43S183.19 99 195.58 99z" fill="#efeeef" fill-rule="evenodd"/><path class="cls-9" d="M189.13 206.91a26.26 26.26 0 00-11.07-7.18 29.84 29.84 0 00-5.24-.89c-9.54-.73-17.28 3.22-17.28 8.84s7.74 10.77 17.28 11.5 17.28-3.21 17.28-8.83a7 7 0 00-.97-3.44z"/><path class="cls-8" d="M190.91 205.2a20.49 20.49 0 00-19.29 27.32h38.57a20.49 20.49 0 00-19.28-27.32z"/><path class="cls-9" d="M205.11 212.83a20.54 20.54 0 00-8.61-5.58 22.75 22.75 0 00-4.07-.69C185 206 179 209.06 179 213.43s6 8.37 13.43 8.95 13.43-2.5 13.43-6.87a5.48 5.48 0 00-.75-2.68zm-3.55-76.25a18.86 18.86 0 01-10.74 3.51 15.46 15.46 0 01-9.95-3.51l.43-3.77c.7-6.24 5.93-11.36 11.62-11.36 5.69 0 9.77 5.12 9.06 11.36z"/><path class="cls-9" d="M193.61 108.12H195a4.31 4.31 0 014.35 4.9l-.59 5.17a5.64 5.64 0 01-5.45 4.9h-1.36a4.3 4.3 0 01-4.34-4.9l.58-5.17a5.63 5.63 0 015.42-4.9z"/><rect x=".37" y="250.88" width="469.96" height="17.88" rx="8.94" ry="8.94" fill="#f7f8f9" stroke-width=".75" stroke="#1d1d1b" stroke-miterlimit="10"/><rect class="cls-2" x="93.24" y="250.88" width="45.44" height="17.88" rx="8.94" ry="8.94"/><path class="cls-4" d="M315.59 95.71l-45.44 33.55s24.41-13 45.44-33.55zM274.28 95a41.23 41.23 0 0135.92-35.91A41.23 41.23 0 01274.28 95z"/><path class="cls-4" d="M286.55 82.73a21.83 21.83 0 0119-19 21.8 21.8 0 01-19 19zm15.67-50.41l5.78 5.81a1.68 1.68 0 010 2.37l-13 13.09a1.62 1.62 0 01-1.18.49h-11.69a1.62 1.62 0 01-1.19-.49l-5.81-5.82a1.65 1.65 0 010-2.36l13.09-13.09a1.59 1.59 0 011.18-.49H301a1.6 1.6 0 011.22.49zM337 67.07l-5.82-5.82a1.68 1.68 0 00-2.37 0L315.7 74.34a1.59 1.59 0 00-.49 1.18v11.64a1.59 1.59 0 00.49 1.18l5.81 5.82a1.68 1.68 0 002.37 0L337 81.07a1.64 1.64 0 00.49-1.18V68.25a1.62 1.62 0 00-.49-1.18z"/><path class="cls-4" d="M293 61.42a43.4 43.4 0 0145.26-33.13 3 3 0 012.74 2.76 43.39 43.39 0 01-33.12 45.26 1.46 1.46 0 01-1.4-.4l-13.1-13.1a1.44 1.44 0 01-.38-1.39z"/><path class="cls-4" d="M294.31 51.89A67.28 67.28 0 01364.47.54a4.57 4.57 0 013.3 1.76l-62.31 62.31-10.54-10.55a2.21 2.21 0 01-.61-2.17z"/><path class="cls-4" d="M367.4 1.88a4.55 4.55 0 011.34 2.94A67.28 67.28 0 01317.39 75a2.27 2.27 0 01-2.17-.61l-10.15-10.18z"/><circle class="cls-2" cx="336.24" cy="33.05" r="12.5"/><path class="cls-4" d="M297.57 70.22l1.5 1.49a1.62 1.62 0 002.29 0L320 53.08a1.63 1.63 0 000-2.3l-1.49-1.49a1.62 1.62 0 00-2.29 0l-18.65 18.63a1.64 1.64 0 000 2.3z"/><path class="cls-6" d="M332.77 27a6.94 6.94 0 11-2.54 9.48 6.94 6.94 0 012.54-9.48z"/><path class="cls-9" d="M333.46 28.24a5.55 5.55 0 017.58 2c1.54 2.66-2.84.05-5.49 1.58s-2.58 6.63-4.12 4a5.55 5.55 0 012.03-7.58z"/><path class="cls-4" d="M263 106.33a41.09 41.09 0 016.53-17.74 39.75 39.75 0 00-2 13.25 40.21 40.21 0 0013.24-2 41 41 0 01-17.77 6.49zm29.74-78.54c.7.69-3.45 6-9.27 11.79s-11.1 10-11.79 9.27 3.45-6 9.27-11.79 11.1-9.97 11.79-9.27zm48.76 48.75c.69.69-3.46 6-9.28 11.79s-11.09 10-11.79 9.28 3.46-6 9.28-11.79 11.09-9.98 11.79-9.28z"/><path class="cls-4" d="M257.13 112.22a23.68 23.68 0 013.75-10.22 23 23 0 00-1.16 7.6 23 23 0 007.6-1.16 23.57 23.57 0 01-10.19 3.78zm14.67-57.57l-32.77 46s12.57-24.65 32.77-46zM91 250.88h77.34c-7.57 0-15.81 6.19-18.32 13.76l-4.57 13.76h-77.3l4.57-13.76c2.51-7.57 10.76-13.76 18.28-13.76z"/><path class="cls-4" d="M82.8 263.34h29.64a1.18 1.18 0 011.17 1.56 2.14 2.14 0 01-2 1.56H82a1.18 1.18 0 01-1.17-1.56 2.14 2.14 0 011.97-1.56zm6.48-6.34h44.15a1.06 1.06 0 011 1.56 2.47 2.47 0 01-2.12 1.56H88.16a1.07 1.07 0 01-1-1.56 2.49 2.49 0 012.12-1.56z"/><path class="cls-8" d="M247.37 206.28a19.67 19.67 0 0118.52 26.24h-37a19.67 19.67 0 0118.52-26.24z"/><path class="cls-9" d="M233.38 213.65a19.73 19.73 0 018.27-5.37 23 23 0 013.91-.66c7.13-.55 12.9 2.41 12.9 6.6s-5.77 8-12.9 8.59-12.9-2.4-12.9-6.59a5.26 5.26 0 01.72-2.57z"/><path class="cls-8" d="M273.08 197a26.63 26.63 0 0125.09 35.56H248A26.66 26.66 0 01273.08 197z"/><path class="cls-9" d="M252.57 206.59a26.76 26.76 0 0111.2-7.27 29.61 29.61 0 015.3-.89c9.66-.75 17.48 3.25 17.48 8.94s-7.82 10.9-17.48 11.64-17.48-3.25-17.48-8.93a7.09 7.09 0 01.98-3.49z"/><path class="cls-8" d="M307.69 185.3A35.38 35.38 0 01341 232.52h-66.64a35.38 35.38 0 0133.33-47.22z"/><circle class="cls-12" cx="181.29" cy="65.69" r="2.69"/><path class="cls-12" d="M188.23 63.77h52v3.84h-52z"/><circle class="cls-12" cx="180.73" cy="76.35" r="2.69"/><path class="cls-12" d="M187.67 74.43h52v3.84h-52zM310.3 164.4h52v3.84h-52zm-.55 10.66h52v3.84h-52zm-147.52-21.21h52v3.84h-52zm0 9.19h52v3.84h-52zm0 9.16h52v3.84h-52zM355.48 63.77h52v3.84h-52zm12.29 10.66h38.67v3.19h-38.67z"/><path class="cls-4" d="M235 228.8h-4.09q1.14 1.88 2.39 3.72h-28.15a81.78 81.78 0 01-5.72-30c0-28.79 15.23-54.82 39.8-73.55-13.36 16.08-21.1 35.21-21.1 55.74q0 4 .39 7.93a62 62 0 0115.42-36.89 60.67 60.67 0 00-10.3 43.57A73 73 0 00235 228.8z"/><path class="cls-8" d="M225.83 218a10.87 10.87 0 0110.23 14.49H215.6A10.87 10.87 0 01225.83 218z"/><path class="cls-9" d="M332.28 196.88a34.8 34.8 0 00-14.64-9.51 39 39 0 00-6.93-1.16c-12.62-1-22.86 4.25-22.86 11.68s10.24 14.25 22.86 15.23 22.86-4.25 22.86-11.69a9.18 9.18 0 00-1.29-4.55z"/><path class="cls-9" d="M282.6 196.83a35.39 35.39 0 0114.87-9.65 39.34 39.34 0 017-1.18c12.82-1 23.21 4.32 23.21 11.87s-10.39 14.47-23.21 15.46-23.22-4.32-23.22-11.87a9.32 9.32 0 011.35-4.63z"/></g></g></svg>