<svg xmlns="http://www.w3.org/2000/svg" width="24" height="16"><path fill="#fff" d="M17.537 14.632l-6.066-3.907-.919-.592 11.874-8.652zm2.94-13.27L7.11 8.152l-5.563-2.91zM9.013 14.287l1.072-3.524 1.67 1.08.478.309-1.623 1.076zM19.068 2.954l-9.44 6.89a.387.387 0 00-.041.04l-.015.013a.397.397 0 00-.023.028l-.019.029a.399.399 0 00-.036.073l-.007.014-.002.004-1.082 3.491-.857-4.723zm4.557-2.49l.005-.029a.409.409 0 00-.004-.087l-.001-.022a.39.39 0 00-.04-.113c-.002-.006-.007-.012-.01-.018l-.002-.003-.002-.003-.007-.013a.387.387 0 00-.087-.09l-.024-.013a.379.379 0 00-.093-.045c-.015-.005-.03-.007-.044-.01a.383.383 0 00-.134-.004c-.01.001-.02 0-.03.002L.314 4.697a.39.39 0 10-.104.727l6.543 3.424 1.148 6.317v.015a.364.364 0 00.008.138.352.352 0 00.043.104c.004.007.004.014.008.02l.005.005c.005.008.012.014.018.021a.4.4 0 00.06.061l.01.01c.005.004.012.005.018.01a.402.402 0 00.075.038.397.397 0 00.14.029h.002l.005-.001h.02a.392.392 0 00.28-.122l4.359-2.883 4.564 2.943a.398.398 0 00.338.043.392.392 0 00.245-.236L23.606.535a.356.356 0 00.013-.041l.003-.017.003-.014z"/></svg>