<?xml version="1.0" encoding="UTF-8"?> <svg xmlns="http://www.w3.org/2000/svg" viewBox="0 0 90.88 88.83"><defs><style>.cls-1{fill:#f4f4f4;}.cls-2,.cls-3{fill:none;}.cls-2,.cls-3,.cls-4{stroke:#000;stroke-width:0.75px;}.cls-2,.cls-4{stroke-miterlimit:10;}.cls-3{stroke-linecap:round;stroke-linejoin:round;}.cls-4{fill:#dd1743;}</style></defs><title>Asset 4</title><g id="Layer_2" data-name="Layer 2"><g id="Layer_1-2" data-name="Layer 1"><path class="cls-1" d="M90.5,71s-1,8-12.57,8c-9.94,0-72.3-.38-72.3-.38S0,76.45,0,73.45v-3"></path><path class="cls-2" d="M9.5,22s-9-1-9,11V73s-1,6,9,6H81a10.43,10.43,0,0,0,5.53-1.5,8.33,8.33,0,0,0,4-7.5V31.71a8.71,8.71,0,0,0-1.75-5.38C87.38,24.58,85,23,81,23.45"></path><line class="cls-2" x1="25.75" y1="78.95" x2="25.75" y2="88.45"></line><line class="cls-2" x1="61.63" y1="78.95" x2="61.63" y2="88.45"></line><line class="cls-2" x1="19" y1="88.45" x2="69" y2="88.45"></line><path class="cls-2" d="M90.28,70.7h0Z"></path><path class="cls-3" d="M27,36.45s-14,2-17-8c-1.47-4.88,0-13,8-13,0,0,3-11,15-6,0,0,2-8,14-9s16,8,16,8,12-2,11,9a7.26,7.26,0,0,0,1.07.67A22.81,22.81,0,0,1,77.54,20c1.86,1.67,3.69,3.87,3.88,6.46.22,2.83-1.72,5.1-3.82,6.74C72.71,37,66.81,36.45,61,36.45"></path><path class="cls-3" d="M41,9.45c.71-.7,6-6,14,0"></path><path class="cls-3" d="M32,27.45v9"></path><line class="cls-3" x1="44" y1="26.45" x2="44" y2="47.45"></line><line class="cls-3" x1="56" y1="26.45" x2="56" y2="29.45"></line><polyline class="cls-3" points="56 32.45 56 55.45 71 55.45"></polyline><line class="cls-3" x1="44" y1="50.45" x2="44" y2="59.45"></line><polyline class="cls-3" points="32 40.45 32 55.45 18 55.45"></polyline><circle class="cls-4" cx="44" cy="61.45" r="4"></circle><circle class="cls-4" cx="72" cy="55.45" r="4"></circle><circle class="cls-4" cx="16" cy="55.45" r="4"></circle></g></g></svg> 