<?xml version="1.0" encoding="UTF-8"?> <svg xmlns="http://www.w3.org/2000/svg" viewBox="0 0 86.1 100.06"><defs><style>.cls-1{fill:#f4f4f4;}.cls-2,.cls-4{fill:none;}.cls-2,.cls-3,.cls-4{stroke:#000;stroke-linecap:round;stroke-width:0.75px;}.cls-2,.cls-3{stroke-linejoin:round;}.cls-3{fill:#d3353e;}.cls-4{stroke-miterlimit:10;}</style></defs><title>Asset 5</title><g id="Layer_2" data-name="Layer 2"><g id="Layer_1-2" data-name="Layer 1"><path class="cls-1" d="M14.27,75.18l-14-13a19.41,19.41,0,0,1,3-5,19.67,19.67,0,0,1,4-3c.9-.43,1.41.38,2.15,1.06L21.27,66.18l-3,2L16.43,70a1.37,1.37,0,0,0-.26.37l-1.9,2.79v2"></path><path class="cls-2" d="M28.77,70.68s-2-5.1-7-4c-9,2-7,10-7,10-6,0-7.64,6.17-7.64,6.17a9.29,9.29,0,0,0,.43,7.71c.25.55.54,1.09.84,1.62a13.81,13.81,0,0,0,9.28,6.67"></path><path class="cls-2" d="M26.77,67.68a17.17,17.17,0,0,1,2.07-2.8,14,14,0,0,1,2.89-2.42,13.2,13.2,0,0,1,3.86-1.6,16.28,16.28,0,0,1,5-.33,15.84,15.84,0,0,1,6.2,1.38,15.53,15.53,0,0,1,8.47,9.6,11.78,11.78,0,0,1,.54,5.17"></path><path class="cls-2" d="M22.77,99.68h30c2.72,0,4.89-.34,7-2,2.47-2,4.77-4.54,5.33-7.74a9.42,9.42,0,0,0-.74-5.15,16.78,16.78,0,0,0-2.62-4.48l0,0a6.29,6.29,0,0,0-.73-.73,10.74,10.74,0,0,0-3.92-2,8.6,8.6,0,0,0-6.31.2"></path><path class="cls-2" d="M21.77,66.68l-13-12s-1-2-5,2c-5,5-3,6-3,6L12.92,74.3"></path><path class="cls-2" d="M10.25,56.07s6.52-6.39,6.52-13.39c0-6,4-9,5.65-10.74.24-.25.52-.43.77-.68l3.58-3.58"></path><path class="cls-2" d="M24.77,37.68s6,5,14-5c4.38-5.47,7.26-7.65,9-8.5a3.7,3.7,0,0,1,3.2,0,3.31,3.31,0,0,1,1.83,2.53c0,2-5,8-10,12"></path><path class="cls-2" d="M51.77,61.68s6-6,11-12c3.16-3.79,2-6,1-7,0,0-2.08-1.73-5,.14"></path><path class="cls-2" d="M41,30,29.77,19.68a13.32,13.32,0,0,0,1-4"></path><path class="cls-2" d="M35.85,35.79,24.77,23.68a13.28,13.28,0,0,1-15-3c-7-7-1-12-1-12l4,5,7-1,1-6-5-5s1-.6,1.09-.63a7.33,7.33,0,0,1,3-.67,11.15,11.15,0,0,1,8.92,5.3,30.5,30.5,0,0,1,2,5"></path><path class="cls-2" d="M57.06,56l4.71,5.67s-3,11,3,15,11,1,11,1l-4-4,1-7,7-1,4,4s5.52-4.48-2-12a11.3,11.3,0,0,0-3.1-2.22,11.89,11.89,0,0,0-6.83-1,14.4,14.4,0,0,0-4.07,1.17l-5-6"></path><path class="cls-2" d="M51,30.23s3.79-3.55,5.79-1.55A3.25,3.25,0,0,1,57,33.44a1.7,1.7,0,0,1-.22.24l-.47.5c-2,2.16-8.53,9.5-8.53,9.5"></path><path class="cls-2" d="M52.77,49.68s6-7,7-8,2-4,1-5c0,0-2.31-3.3-6.16-.65"></path><path class="cls-2" d="M35.77,95.68c-3.67-2.93-8.36-7.41-9-12.28a11,11,0,0,1,3.39-8.82c2.62-2.26,6.84-2.46,9.9-1a8.77,8.77,0,0,1,4.72,7.11C45.77,88.68,35.77,95.68,35.77,95.68Z"></path><circle class="cls-3" cx="35.77" cy="81.68" r="4"></circle><path class="cls-4" d="M47.27,66.18c.8.19,4.68,4.08,3.45,7.68"></path></g></g></svg> 