<?xml version="1.0" encoding="UTF-8"?> <svg xmlns="http://www.w3.org/2000/svg" viewBox="0 0 75.75 63.42"><defs><style>.cls-1{fill:#dd1743;}.cls-1,.cls-2{stroke:#000;stroke-linecap:round;stroke-linejoin:round;stroke-width:0.75px;}.cls-2{fill:none;}</style></defs><title>Asset 102</title><g id="Layer_2" data-name="Layer 2"><g id="Layer_1-2" data-name="Layer 1"><circle class="cls-1" cx="1.74" cy="53.4" r="1.36"></circle><path class="cls-2" d="M1.87,48.37c0-4,.08-8,0-12,0,.07,4,0,4.35,0A4.29,4.29,0,0,1,9,37.11c1.58,1.21,1.91,3.41,1.91,5.26,0,2.23,0,4.46,0,6.68,0,2.86-2.09,5.06-5,4.32"></path><path class="cls-2" d="M10.55,39.66c4.9,0,9.45-.41,13.82,2.21a33.48,33.48,0,0,1,6.55,5.31c1.32,1.33,4.38,4.15,3.62,6.31a2.18,2.18,0,0,1-2,1.27,7.51,7.51,0,0,1-4.05-1.32,31.38,31.38,0,0,1-5.14-4.57"></path><path class="cls-2" d="M10.66,50.7a12.21,12.21,0,0,1,8.74,4c1.84,2,3.28,4.47,5.46,6.17A11.64,11.64,0,0,0,31.92,63c4.14.09,8.31-.16,12.45-.16,0,0,4,0,4-3a3.66,3.66,0,0,0-4-4h-5"></path><circle class="cls-1" cx="74.01" cy="10.03" r="1.36"></circle><path class="cls-2" d="M73.88,15.05c0,4-.08,8,0,12,0-.07-4,0-4.36,0a4.27,4.27,0,0,1-2.73-.72c-1.58-1.2-1.91-3.41-1.91-5.26,0-2.23,0-4.45,0-6.68,0-2.86,2.09-5.06,5-4.32"></path><path class="cls-2" d="M65.2,23.77c-4.9,0-9.45.4-13.83-2.22a34.08,34.08,0,0,1-6.55-5.31c-1.32-1.33-4.37-4.15-3.61-6.31a2.18,2.18,0,0,1,2-1.27A7.59,7.59,0,0,1,47.24,10a32.77,32.77,0,0,1,5.14,4.57"></path><path class="cls-2" d="M65.08,12.72a12.2,12.2,0,0,1-8.74-4c-1.83-2-3.27-4.47-5.45-6.17A11.73,11.73,0,0,0,43.83.39C39.68.31,35.52.55,31.37.55c0,0-4,0-4,3a3.66,3.66,0,0,0,4,4h5"></path><path class="cls-2" d="M37.37,41.87s-10-7-10-11a5.33,5.33,0,0,1,7-5c3,1,3,2,3,2"></path><path class="cls-2" d="M37.37,41.87s10-7,10-11a5.33,5.33,0,0,0-7-5c-3,1-3,2-3,2"></path><circle cx="21.37" cy="15.87" r="1"></circle><circle cx="25.37" cy="12.87" r="1"></circle><circle cx="29.37" cy="10.87" r="1"></circle><circle cx="18.37" cy="18.87" r="1"></circle><circle cx="15.87" cy="22.37" r="1"></circle><circle cx="14.37" cy="26.87" r="1"></circle><circle cx="14.37" cy="30.87" r="1"></circle><circle cx="14.37" cy="35.87" r="1"></circle><circle cx="54.37" cy="46.87" r="1"></circle><circle cx="50.37" cy="49.87" r="1"></circle><circle cx="46.37" cy="51.87" r="1"></circle><circle cx="57.37" cy="43.87" r="1"></circle><circle cx="59.87" cy="40.37" r="1"></circle><circle cx="61.37" cy="35.87" r="1"></circle><circle cx="61.37" cy="31.87" r="1"></circle><circle cx="61.37" cy="26.87" r="1"></circle></g></g></svg> 