<?xml version="1.0" encoding="UTF-8"?> <svg xmlns="http://www.w3.org/2000/svg" width="94.64985" height="91.92819" viewBox="0 0 94.64985 91.92819"><title>Asset 820</title><g id="Layer_2" data-name="Layer 2"><g id="Layer_1-2" data-name="Layer 1"><circle cx="35.87932" cy="31.05303" r="23.43939" style="fill:#fff;stroke:#000;stroke-miterlimit:10;stroke-width:0.75px"></circle><polyline points="80.345 0.375 87.239 0.375 64.662 21.574" style="fill:none;stroke:#000;stroke-linecap:round;stroke-linejoin:round;stroke-width:0.75px"></polyline><circle cx="5.89069" cy="58.28463" r="5.51515" style="fill:#dd1743;stroke:#000;stroke-miterlimit:10;stroke-width:0.75px"></circle><circle cx="26.5725" cy="33.46644" r="5.51515" style="fill:#dd1743;stroke:#000;stroke-miterlimit:10;stroke-width:0.75px"></circle><circle cx="45.87553" cy="40.36038" r="5.51515" style="fill:#dd1743;stroke:#000;stroke-miterlimit:10;stroke-width:0.75px"></circle><circle cx="73.45129" cy="12.78463" r="5.51515" style="fill:#dd1743;stroke:#000;stroke-miterlimit:10;stroke-width:0.75px"></circle><circle cx="35.87932" cy="31.05303" r="30.33333" style="fill:none;stroke:#000;stroke-miterlimit:10;stroke-width:0.75px"></circle><path d="M23.81493,19.678a16.19366,16.19366,0,0,1,17.92424-4.13636" style="fill:none;stroke:#000;stroke-linecap:round;stroke-linejoin:round;stroke-width:0.75px"></path><line x1="8.30357" y1="53.23687" x2="11.4549" y2="49.83927" style="fill:none;stroke:#000;stroke-miterlimit:10;stroke-width:0.75px"></line><line x1="16.40653" y1="44.60136" x2="22.26379" y2="37.86848" style="fill:none;stroke:#000;stroke-miterlimit:10;stroke-width:0.75px"></line><line x1="32.08766" y1="34.8447" x2="40.35618" y2="38.09891" style="fill:none;stroke:#000;stroke-miterlimit:10;stroke-width:0.75px"></line><line x1="50.01044" y1="36.72012" x2="59.22337" y2="27.56029" style="fill:none;stroke:#000;stroke-miterlimit:10;stroke-width:0.75px"></line><line x1="87.23917" y1="5.89015" x2="87.23917" y2="0.375" style="fill:none;stroke:#000;stroke-linecap:round;stroke-linejoin:round;stroke-width:0.75px"></line><line x1="53.29648" y1="55.98419" x2="61.0422" y2="63.79924" style="fill:none;stroke:#000;stroke-linecap:round;stroke-linejoin:round;stroke-width:0.75px"></line><line x1="60.60878" y1="48.47041" x2="67.93614" y2="56.9053" style="fill:none;stroke:#000;stroke-linecap:round;stroke-linejoin:round;stroke-width:0.75px"></line><polygon points="58.285 66.557 70.694 54.148 94.133 77.587 81.724 91.375 58.285 66.557" style="fill:#f4f4f4;stroke:#000;stroke-miterlimit:10;stroke-width:0.75px"></polygon><polyline points="67.936 63.799 70.694 61.042 78.966 69.314" style="fill:none;stroke:#000;stroke-linecap:round;stroke-linejoin:round;stroke-width:0.75px"></polyline><line x1="81.72402" y1="72.07197" x2="83.10281" y2="73.45076" style="fill:none;stroke:#000;stroke-linecap:round;stroke-linejoin:round;stroke-width:0.75px"></line></g></g></svg> 