<?xml version="1.0" encoding="UTF-8"?> <svg xmlns="http://www.w3.org/2000/svg" viewBox="0 0 85.74 84.25"><defs><style>.cls-1,.cls-4{fill:#f4f4f4;}.cls-2{fill:#fff;}.cls-2,.cls-3,.cls-4,.cls-5,.cls-6{stroke:#000;}.cls-2,.cls-3{stroke-linecap:round;stroke-linejoin:round;}.cls-2,.cls-3,.cls-4,.cls-6{stroke-width:0.75px;}.cls-3{fill:none;}.cls-4,.cls-5,.cls-6{stroke-miterlimit:10;}.cls-5,.cls-6{fill:#dd1743;}.cls-5{stroke-width:0.48px;}</style></defs><title>Enable User</title><g id="Layer_2" data-name="Layer 2"><g id="Layer_1-2" data-name="Layer 1"><rect class="cls-1" x="61.09" y="79.83" width="24.28" height="3.47"></rect><path class="cls-2" d="M55.19,83.87S50.55,68.1,70,68.1,84.88,83.87,84.88,83.87Z"></path><polyline class="cls-3" points="65.86 69.03 69.57 72.74 73.55 68.3"></polyline><path class="cls-2" d="M76.07,49.54s-13.92-2.78-13.92,4.64c0,.87,0,1.73,0,2.56C62.25,63,63,68.1,69.57,68.1,77,68.1,76.07,57,76.07,57V49.54Z"></path><path class="cls-2" d="M62.15,57s13.92,1.85,13.92-3.71"></path><rect class="cls-1" x="0.4" y="80.41" width="24.28" height="3.47"></rect><path class="cls-2" d="M.86,83.87S-3.78,68.1,15.7,68.1,30.55,83.87,30.55,83.87Z"></path><polyline class="cls-2" points="11.53 69.03 15.24 72.74 19.22 68.3"></polyline><path class="cls-2" d="M21.73,49.54S7.82,46.76,7.82,54.18c0,.87,0,1.73,0,2.56.09,6.3.86,11.36,7.41,11.36C22.66,68.1,21.73,57,21.73,57V49.54Z"></path><path class="cls-2" d="M7.82,57s13.91,1.85,13.91-3.71"></path><path class="cls-2" d="M24.37,83.87s-5.78-19.65,18.5-19.65,18.5,19.65,18.5,19.65Z"></path><polyline class="cls-3" points="37.4 64.88 42.29 70 47.25 64.47"></polyline><path class="cls-2" d="M50.38,41.1S33,37.64,33,46.88c0,1.09,0,2.15,0,3.19.11,7.85,1.07,14.15,9.23,14.15,9.25,0,8.09-13.87,8.09-13.87V41.1Z"></path><path class="cls-2" d="M33,50.35s17.34,2.31,17.34-4.62"></path><circle class="cls-4" cx="42.05" cy="13.51" r="13.13"></circle><polyline class="cls-3" points="34.9 12.96 39.98 17.03 49.14 8.89"></polyline><circle class="cls-5" cx="42.02" cy="73.15" r="1"></circle><line class="cls-6" x1="0.4" y1="80.89" x2="23.77" y2="80.89"></line><line class="cls-6" x1="61.67" y1="80.89" x2="85.04" y2="80.89"></line></g></g></svg> 