<?xml version="1.0" encoding="UTF-8"?> <svg xmlns="http://www.w3.org/2000/svg" xmlns:xlink="http://www.w3.org/1999/xlink" width="27" height="27" viewBox="0 0 27 27"><defs><path id="b03ea" d="M348.216 682.923zm-11.715-8.978a1.342 1.342 0 0 0-1.632 0l-11.716 8.978v-14.095l7.334 5.619c.196.15.477.114.628-.078a.438.438 0 0 0-.079-.62l-7.45-5.709 3.148-2.414v3.412c0 .244.2.442.447.442a.445.445 0 0 0 .448-.442v-7.949c0-.243.2-.441.447-.441h15.217c.247 0 .447.198.447.441v7.95c0 .243.2.44.448.44a.445.445 0 0 0 .448-.44v-3.413l3.148 2.414-7.464 5.719a.439.439 0 0 0 .103.761c.15.06.32.036.446-.063l7.347-5.63v14.096zm-12.788 9.666l11.703-8.97a.434.434 0 0 1 .534 0l11.706 8.97zm11.702-24.637a.436.436 0 0 1 .536 0l1.036.79h-2.605zm13.68 9.155a.412.412 0 0 0-.018-.09.437.437 0 0 0-.025-.076.396.396 0 0 0-.045-.068.418.418 0 0 0-.06-.068c-.007-.006-.01-.015-.018-.02l-4.302-3.3v-3.418c0-.731-.6-1.324-1.342-1.324h-4.848l-1.941-1.488a1.34 1.34 0 0 0-1.632 0l-1.941 1.488h-4.849c-.74 0-1.342.593-1.342 1.324v3.419l-4.3 3.298c-.008.006-.011.015-.019.02a.416.416 0 0 0-.06.07.394.394 0 0 0-.044.067.43.43 0 0 0-.025.076.413.413 0 0 0-.019.088c0 .01-.005.018-.005.027v15.015c0 .281.093.555.263.78.002.004.003.009.006.012l.014.013c.251.326.642.518 1.058.52h24.158c.417-.001.81-.194 1.06-.523.004-.004.01-.005.013-.01l.006-.012a1.3 1.3 0 0 0 .263-.78v-15.014c0-.01-.005-.017-.006-.026z"></path><path id="b03eb" d="M341.057 668.596v-1.767c0-2.926-2.404-5.299-5.369-5.299-2.964 0-5.368 2.373-5.368 5.3 0 2.926 2.404 5.298 5.368 5.298a.444.444 0 0 0 .448-.441c0-.244-.2-.442-.448-.442-2.47 0-4.473-1.977-4.473-4.416s2.003-4.416 4.473-4.416c2.471 0 4.474 1.977 4.474 4.416v1.767c0 .487-.4.883-.895.883a.889.889 0 0 1-.894-.883v-1.767c0-.244-.2-.441-.448-.441a.444.444 0 0 0-.447.441c0 .976-.801 1.767-1.79 1.767-.988 0-1.789-.791-1.789-1.767 0-.975.801-1.766 1.79-1.766a.444.444 0 0 0 .447-.442c0-.244-.2-.441-.448-.441a2.68 2.68 0 0 0-2.587 1.923 2.634 2.634 0 0 0 1.172 2.981c1.022.623 2.339.5 3.224-.302.098.934.92 1.628 1.87 1.578a1.772 1.772 0 0 0 1.69-1.764z"></path></defs><g><g transform="translate(-322 -658)"><g><use fill="#e31936" xlink:href="#b03ea"></use></g><g><use fill="#e31936" xlink:href="#b03eb"></use></g></g></g></svg> 