<?xml version="1.0" encoding="UTF-8"?> <svg xmlns="http://www.w3.org/2000/svg" xmlns:xlink="http://www.w3.org/1999/xlink" width="24" height="25" viewBox="0 0 24 25"><defs><path id="oawya" d="M735.513 552.548l-1.24 2.005c-.274.455-.719.79-1.241.933-2.504.667-6.877.115-13.496-6.306-6.62-6.422-7.188-10.664-6.501-13.094.149-.507.494-.939.963-1.205l2.067-1.203a.634.634 0 0 1 .84.183l1.79 2.608 1.503 2.187c.18.264.12.618-.136.813l-1.85 1.396a1.355 1.355 0 0 0-.378 1.774l.147.259c.52.925 1.167 2.076 3.528 4.366 2.36 2.29 3.547 2.917 4.5 3.422l.267.143c.619.336 1.398.18 1.828-.366l1.44-1.795a.64.64 0 0 1 .838-.132l4.942 3.197c.278.18.361.538.19.815zm.266-1.473l-4.942-3.197a1.473 1.473 0 0 0-1.932.304l-1.44 1.796a.628.628 0 0 1-.789.16l-.274-.146c-.908-.48-2.037-1.077-4.313-3.286s-2.894-3.306-3.389-4.185l-.15-.266a.586.586 0 0 1 .163-.768l1.85-1.396c.592-.45.728-1.266.314-1.874l-3.296-4.795a1.462 1.462 0 0 0-1.935-.423l-2.067 1.205c-.649.37-1.125.97-1.329 1.674-.744 2.63-.184 7.17 6.71 13.86 5.484 5.32 9.567 6.751 12.373 6.751a7.419 7.419 0 0 0 1.913-.242 2.902 2.902 0 0 0 1.726-1.29l1.242-2.004a1.367 1.367 0 0 0-.435-1.878z"></path><path id="oawyb" d="M725.837 536.75c3.819.004 6.914 3.006 6.918 6.711 0 .218.182.395.407.395a.401.401 0 0 0 .407-.395c-.005-4.14-3.464-7.496-7.732-7.501a.401.401 0 0 0-.407.395c0 .218.182.395.407.395z"></path><path id="oawyc" d="M725.837 539.12c2.47.002 4.473 1.945 4.476 4.342 0 .218.183.395.407.395a.401.401 0 0 0 .407-.395c-.003-2.833-2.37-5.129-5.29-5.132a.401.401 0 0 0-.407.395c0 .218.182.395.407.395z"></path><path id="oawyd" d="M725.837 541.49c1.123 0 2.033.884 2.035 1.973 0 .219.182.395.407.395a.401.401 0 0 0 .406-.394c-.001-1.526-1.276-2.762-2.848-2.764a.401.401 0 0 0-.407.395c0 .218.182.395.407.395z"></path></defs><g><g transform="translate(-712 -532)"><g transform="rotate(3 724 544.5)"><g><use fill="#e31936" xlink:href="#oawya"></use></g><g><use fill="#e31936" xlink:href="#oawyb"></use></g><g><use fill="#e31936" xlink:href="#oawyc"></use></g><g><use fill="#e31936" xlink:href="#oawyd"></use></g></g></g></g></svg> 