<?xml version="1.0" encoding="UTF-8"?> <svg xmlns="http://www.w3.org/2000/svg" viewBox="0 0 83.18 79.4"><defs><style>.cls-1{fill:#f4f4f4;}.cls-2,.cls-5{fill:none;}.cls-2,.cls-3,.cls-4,.cls-5{stroke:#000;stroke-width:0.68px;}.cls-2{stroke-miterlimit:10;}.cls-3{fill:#fff;}.cls-3,.cls-4,.cls-5{stroke-linecap:round;stroke-linejoin:round;}.cls-4{fill:#dd1743;}</style></defs><title>Asset 74</title><g id="Layer_2" data-name="Layer 2"><g id="Layer_1-2" data-name="Layer 1"><path class="cls-1" d="M82.49,54,80.8,57.2c-1,1.45-2.8,3.5-4.54,3.64l-16.91.34a4,4,0,0,1-.49,0l-48.81-.3a5.71,5.71,0,0,1-2.74-.71l-3.4-1.88a5.72,5.72,0,0,1-2-1.92l-.61-1a5.72,5.72,0,0,1-.91-3.09L.8,48.11"></path><polyline class="cls-1" points="82.49 54.02 82.62 48.11 0.34 48.52"></polyline><path class="cls-2" d="M.34,10S.34.4,8.59.4H71.84s11-1.38,11,9.62V52.65s-1.37,8.25-8.25,8.25h-66S.34,59.52.34,51.27Z"></path><path class="cls-3" d="M20.27,38.92A22.69,22.69,0,1,1,63,39.07"></path><path class="cls-2" d="M38.84,33.4,50.72,21.52a.16.16,0,0,1,.26.16L45.72,36.15"></path><path class="cls-4" d="M38.66,39a4.49,4.49,0,1,1,7.43-2.58,4.45,4.45,0,0,1-1.5,2.64"></path><line class="cls-2" x1="31.05" y1="60.9" x2="29.22" y2="73.27"></line><line class="cls-2" x1="53.97" y1="73.27" x2="51.22" y2="60.9"></line><path class="cls-5" d="M40.22,73.27H25.09S21,73.27,21,76c0,4,5.59,2.93,8.14,2.88,7.52-.13,15-.13,22.56-.13h7.8s4.12,0,4.12-2.75-4.12-2.75-4.12-2.75h-11"></path><path class="cls-5" d="M82.84,47.87h0Z"></path><line class="cls-5" x1="38.84" y1="54.02" x2="44.34" y2="54.02"></line><line class="cls-5" x1="15.54" y1="39.58" x2="67.79" y2="39.58"></line><path class="cls-5" d="M26.47,38.9S23.72,32,25.09,26.52"></path><path class="cls-5" d="M56.72,38.9s2.36-6.88,1-12.38"></path><path class="cls-5" d="M33.34,16.9s6.88-4.13,13.75-1.38"></path></g></g></svg> 