<?xml version="1.0" encoding="UTF-8"?> <svg xmlns="http://www.w3.org/2000/svg" viewBox="0 0 82.28 78.3"><defs><style>.cls-1{fill:#dd1743;}.cls-1,.cls-2,.cls-3,.cls-4{stroke:#000;stroke-width:0.75px;}.cls-1,.cls-2,.cls-3{stroke-miterlimit:10;}.cls-2,.cls-4{fill:none;}.cls-3{fill:#fff;}.cls-4{stroke-linecap:round;stroke-linejoin:round;}</style></defs><title>Productivity</title><g id="Layer_2" data-name="Layer 2"><g id="Layer_1-2" data-name="Layer 1"><circle class="cls-1" cx="18.04" cy="14.62" r="5.47"></circle><polyline class="cls-2" points="17.86 27.07 14.3 26.35 11.86 28.59 8.71 26.3 10.1 23.3 7.71 19.95 4.84 19.48 4.27 15.85 6.85 14.51 8.09 10.6 5.84 8.16 8.13 5.01 11.14 6.4 14.48 4.01 14.05 1.29 19.49 0.43 19.92 3.15 22.93 4.53 25.8 1.64 28.98 4.82 27.13 7.59 28.47 10.16 32.24 10.5 32.96 15.03 29.47 16.51 28.98 20.71"></polyline><path class="cls-3" d="M9.12,77.93V66.69a4.92,4.92,0,0,1,3.68-4.81,13.06,13.06,0,0,1,3.06-.33c5.78,0,5.78,3.85,5.78,3.85V77.93"></path><path class="cls-3" d="M26.57,77.93V56.09a4.93,4.93,0,0,1,3.68-4.81A13.09,13.09,0,0,1,33.32,51c5.78,0,5.78,3.85,5.78,3.85V77.93"></path><path class="cls-3" d="M44,77.93V43.79A4.93,4.93,0,0,1,47.71,39a13.09,13.09,0,0,1,3.07-.33c5.78,0,5.78,3.85,5.78,3.85V77.93"></path><path class="cls-3" d="M61.49,77.93V37.78A4.92,4.92,0,0,1,65.17,33a12.5,12.5,0,0,1,3.06-.34C74,32.63,74,36.49,74,36.49V77.93"></path><line class="cls-4" x1="0.38" y1="77.93" x2="81.91" y2="77.93"></line><polyline class="cls-4" points="61.83 4.03 73.48 3.23 51.64 24.41 43.28 20.71 13.42 47.34"></polyline><line class="cls-4" x1="73.48" y1="3.23" x2="73.48" y2="12.77"></line><circle class="cls-1" cx="13.8" cy="47.39" r="5.01"></circle></g></g></svg> 