<?xml version="1.0" encoding="iso-8859-1"?>
<!-- Generator: Adobe Illustrator 25.0.0, SVG Export Plug-In . SVG Version: 6.00 Build 0)  -->
<!DOCTYPE svg PUBLIC "-//W3C//DTD SVG 1.1//EN" "http://www.w3.org/Graphics/SVG/1.1/DTD/svg11.dtd" [
	<!ENTITY ns_extend "http://ns.adobe.com/Extensibility/1.0/">
	<!ENTITY ns_ai "http://ns.adobe.com/AdobeIllustrator/10.0/">
	<!ENTITY ns_graphs "http://ns.adobe.com/Graphs/1.0/">
	<!ENTITY ns_vars "http://ns.adobe.com/Variables/1.0/">
	<!ENTITY ns_imrep "http://ns.adobe.com/ImageReplacement/1.0/">
	<!ENTITY ns_sfw "http://ns.adobe.com/SaveForWeb/1.0/">
	<!ENTITY ns_custom "http://ns.adobe.com/GenericCustomNamespace/1.0/">
	<!ENTITY ns_adobe_xpath "http://ns.adobe.com/XPath/1.0/">
]>
<svg version="1.1" id="Layer_1" xmlns:x="&ns_extend;" xmlns:i="&ns_ai;" xmlns:graph="&ns_graphs;"
	 xmlns="http://www.w3.org/2000/svg" xmlns:xlink="http://www.w3.org/1999/xlink" x="0px" y="0px" viewBox="0 0 70 70"
	 style="enable-background:new 0 0 70 70;" xml:space="preserve">
<metadata>
	<sfw  xmlns="&ns_sfw;">
		<slices></slices>
		<sliceSourceBounds  bottomLeftOrigin="true" height="45.098" width="61.568" x="275.216" y="373.451"></sliceSourceBounds>
	</sfw>
</metadata>
<g>
	<path style="fill:none;stroke:#DFDFDD;stroke-width:1.5;stroke-linecap:round;stroke-linejoin:round;stroke-miterlimit:10;" d="
		M50.1,34.917l1.757-1.757c0.206-0.206,0.455-0.361,0.724-0.458l-0.142-0.124c-1.07,0-1.938-0.868-1.938-1.938
		c0-0.74,0.277-1.414,0.732-1.927c-1.494,0.121-2.669,1.371-2.669,2.896v0.68c0,0.833,0.134,1.661,0.398,2.451l0.571,1.713v-0.166
		C49.533,35.773,49.737,35.28,50.1,34.917z"/>
	<path style="fill:none;stroke:#DFDFDD;stroke-width:1.5;stroke-linecap:round;stroke-linejoin:round;stroke-miterlimit:10;" d="
		M52.439,32.578l0.142,0.124c0.217-0.078,0.448-0.119,0.682-0.111c3.097,0.098,5.838,0.761,7.337,2.225
		c0.322,0.314,0.508,0.739,0.55,1.184l0.679-2.378c0.198-0.692,0.298-1.409,0.298-2.129v-1.821c0-1.07-0.867-1.938-1.938-1.938
		h-6.782c-0.866,0-1.642,0.379-2.175,0.979c-0.455,0.513-0.732,1.188-0.732,1.927C50.501,31.71,51.369,32.578,52.439,32.578z"/>
	<path style="fill:none;stroke:#DFDFDD;stroke-width:1.5;stroke-linecap:round;stroke-linejoin:round;stroke-miterlimit:10;" d="
		M55.345,46.545L55.345,46.545L55.345,46.545l2.798-2.594c0.033-0.03,0.07-0.052,0.109-0.069v-1.426
		c-0.855,0.495-1.847,0.779-2.906,0.779c-1.059,0-2.052-0.285-2.907-0.78v1.426c0.039,0.017,0.077,0.038,0.11,0.069L55.345,46.545z"
		/>
	<path style="fill:none;stroke:#DFDFDD;stroke-width:1.5;stroke-linecap:round;stroke-linejoin:round;stroke-miterlimit:10;" d="
		M54.377,47.285L53.703,47.8c-0.283,0.216-0.692,0.13-0.863-0.183l-1.473-2.69l0.003-0.005l-3.315,0.947l0.863,0.314
		c1.532,0.557,2.551,2.012,2.551,3.642v6.005c0,0.534-0.432,0.967-0.966,0.969h3.873h1.938h7.751c0.535,0,0.969-0.434,0.969-0.969
		v-7.083c0-1.298-0.86-2.438-2.108-2.795l-3.606-1.03l0.003,0.005l-1.473,2.69c-0.171,0.312-0.58,0.399-0.863,0.183l-0.673-0.514"/>
	
		<rect x="55.345" y="46.545" transform="matrix(0.5484 -0.8362 0.8362 0.5484 -13.9266 67.3042)" style="fill:none;stroke:#DFDFDD;stroke-width:1.5;stroke-linecap:round;stroke-linejoin:round;stroke-miterlimit:10;" width="0.001" height="0.001"/>
	
		<polygon style="fill:none;stroke:#DFDFDD;stroke-width:1.5;stroke-linecap:round;stroke-linejoin:round;stroke-miterlimit:10;" points="
		55.346,46.545 55.334,46.554 55.357,46.554 	"/>
	<path style="fill:none;stroke:#DFDFDD;stroke-width:1.5;stroke-linecap:round;stroke-linejoin:round;stroke-miterlimit:10;" d="
		M58.251,42.456c1.737-1.005,2.907-2.882,2.907-5.034v-1.235c0-0.063-0.003-0.126-0.009-0.188c-0.041-0.446-0.228-0.87-0.55-1.184
		c-1.499-1.464-4.24-2.127-7.337-2.225c-0.235-0.007-0.465,0.033-0.682,0.111c-0.269,0.097-0.518,0.252-0.724,0.458L50.1,34.917
		c-0.363,0.363-0.567,0.856-0.567,1.37v0.166v0.969c0,2.151,1.169,4.028,2.906,5.033c0.855,0.495,1.848,0.78,2.907,0.78
		C56.404,43.235,57.396,42.951,58.251,42.456z"/>
	<path style="fill:none;stroke:#DFDFDD;stroke-width:1.5;stroke-linecap:round;stroke-linejoin:round;stroke-miterlimit:10;" d="
		M52.841,47.617c0.171,0.312,0.58,0.399,0.863,0.183l0.673-0.514l0.957-0.731l0.012-0.009l0,0l-2.797-2.594
		c-0.033-0.031-0.071-0.052-0.11-0.069c-0.167-0.073-0.371-0.022-0.478,0.141l-0.59,0.899l-0.003,0.005L52.841,47.617z"/>
	<path style="fill:none;stroke:#DFDFDD;stroke-width:1.5;stroke-linecap:round;stroke-linejoin:round;stroke-miterlimit:10;" d="
		M55.346,46.545L55.346,46.545l0.011,0.009l0.957,0.731l0.673,0.514c0.283,0.216,0.692,0.13,0.863-0.183l1.473-2.69l-0.003-0.005
		l-0.59-0.899c-0.107-0.163-0.312-0.214-0.479-0.14c-0.038,0.017-0.076,0.038-0.109,0.069L55.346,46.545z"/>
	<path style="fill:none;stroke:#DFDFDD;stroke-width:1.5;stroke-linecap:round;stroke-linejoin:round;stroke-miterlimit:10;" d="
		M20.178,44.715c-0.796,0.279-1.767,0.562-2.84,0.751C18.411,45.278,19.383,44.995,20.178,44.715z"/>
	<path style="fill:none;stroke:#DFDFDD;stroke-width:1.5;stroke-linecap:round;stroke-linejoin:round;stroke-miterlimit:10;" d="
		M10.779,42.456c-1.531-0.886-2.621-2.449-2.858-4.281c-0.053-0.414,0.145-0.819,0.518-1.007c0.446-0.225,1.094-0.604,1.715-1.158
		c0.691-0.617,1.097-1.267,1.326-1.744c0.197-0.411,0.65-0.644,1.092-0.531l0,0c0,0-0.097-0.043-0.248-0.132
		c-2.506-1.481-1.488-5.442,1.411-5.48c-3.777,0.03-6.567,3.063-6.835,6.78c-0.142,1.963-0.798,5.734-1.626,7.928
		c-0.182,0.484,0.028,1.017,0.504,1.233c0.817,0.37,2.485,1.066,4.524,1.414c0.302-0.347,0.478-0.796,0.478-1.273V42.456z"/>
	<path style="fill:none;stroke:#DFDFDD;stroke-width:1.5;stroke-linecap:round;stroke-linejoin:round;stroke-miterlimit:10;" d="
		M22.109,43.848c0.252-0.264,0.336-0.654,0.199-1.017c-0.828-2.194-1.485-5.965-1.626-7.928c0.142,1.963,0.798,5.734,1.626,7.928
		C22.445,43.193,22.361,43.584,22.109,43.848z"/>
	
		<polygon style="fill:none;stroke:#DFDFDD;stroke-width:1.5;stroke-linecap:round;stroke-linejoin:round;stroke-miterlimit:10;" points="
		13.791,28.121 13.791,28.121 13.791,28.121 	"/>
	<path style="fill:none;stroke:#DFDFDD;stroke-width:1.5;stroke-linecap:round;stroke-linejoin:round;stroke-miterlimit:10;" d="
		M12.324,33.602c0.151,0.089,0.248,0.132,0.248,0.132l0,0c0,0,0,0,0,0c3.411,0.87,5.734,2.645,6.576,3.369
		c0.226,0.195,0.357,0.481,0.333,0.779c-0.153,1.957-1.276,3.642-2.889,4.575l0,1.747c0,0.49,0.186,0.952,0.505,1.303
		c0.081-0.013,0.161-0.027,0.242-0.041c1.073-0.188,2.045-0.471,2.84-0.751c0.691-0.243,1.251-0.482,1.626-0.652
		c0.119-0.054,0.221-0.128,0.305-0.216c0.252-0.264,0.336-0.654,0.199-1.017c-0.828-2.194-1.485-5.965-1.626-7.928
		c-0.27-3.736-3.085-6.782-6.891-6.782c0,0,0,0,0,0c0,0,0,0,0,0c-0.01,0-0.019,0-0.029,0c-0.009,0-0.018,0.001-0.028,0.001
		C10.835,28.159,9.818,32.12,12.324,33.602z"/>
	<path style="fill:none;stroke:#DFDFDD;stroke-width:1.5;stroke-linecap:round;stroke-linejoin:round;stroke-miterlimit:10;" d="
		M13.686,49.048c2.047,0,3.843-1.061,4.879-2.66l-0.902-0.451c-0.218-0.109-0.408-0.256-0.567-0.43
		c-0.319-0.351-0.505-0.813-0.505-1.303l0-1.747c-0.855,0.495-1.848,0.778-2.907,0.778c-1.059,0-2.051-0.284-2.907-0.779v1.748
		c0,0.477-0.176,0.926-0.478,1.273c-0.163,0.187-0.363,0.345-0.593,0.46l-0.902,0.451C9.842,47.987,11.638,49.048,13.686,49.048z"/>
	<path style="fill:none;stroke:#DFDFDD;stroke-width:1.5;stroke-linecap:round;stroke-linejoin:round;stroke-miterlimit:10;" d="
		M6.573,47.505l1.024-0.512L6.573,47.505c-0.985,0.492-1.607,1.499-1.607,2.6C4.966,49.004,5.588,47.997,6.573,47.505z"/>
	<path style="fill:none;stroke:#DFDFDD;stroke-width:1.5;stroke-linecap:round;stroke-linejoin:round;stroke-miterlimit:10;" d="
		M18.53,55.83v-6.005c0-1.099,0.465-2.118,1.237-2.836l-1.202-0.601c0,0,0,0,0,0c-1.036,1.599-2.832,2.66-4.879,2.66
		c-2.047,0-3.844-1.061-4.879-2.66c0,0,0,0,0,0l-1.209,0.605l-1.024,0.512c-0.985,0.492-1.607,1.499-1.607,2.6v5.725
		c0,0.535,0.434,0.969,0.969,0.969h13.561C18.962,56.797,18.53,56.364,18.53,55.83z"/>
	<path style="fill:none;stroke:#DFDFDD;stroke-width:1.5;stroke-linecap:round;stroke-linejoin:round;stroke-miterlimit:10;" d="
		M19.481,37.882c0.023-0.298-0.107-0.584-0.333-0.779c-0.843-0.725-3.165-2.499-6.576-3.369c0,0,0,0,0,0
		c-0.442-0.113-0.895,0.12-1.092,0.531c-0.229,0.477-0.634,1.128-1.326,1.744c-0.621,0.554-1.269,0.933-1.715,1.158
		c-0.372,0.188-0.571,0.593-0.518,1.007c0.237,1.832,1.327,3.395,2.858,4.281c0.855,0.495,1.847,0.779,2.907,0.779
		c1.059,0,2.051-0.284,2.907-0.778C18.204,41.524,19.327,39.839,19.481,37.882z"/>
	<path style="fill:none;stroke:#DFDFDD;stroke-width:1.5;stroke-linecap:round;stroke-linejoin:round;stroke-miterlimit:10;" d="
		M51.47,55.83v-6.005c0-1.63-1.019-3.085-2.551-3.642l-0.863-0.314l-5.306-1.93l0.001,0.003l-3.204,4.222
		c-0.355,0.468-1.041,0.515-1.457,0.099l-1.395-1.395v0.895c0,0.332-0.239,0.608-0.555,0.666l0.797,8.369h-3.875l0.797-8.369
		c-0.316-0.058-0.555-0.334-0.555-0.666v-0.895l-1.395,1.395c-0.415,0.415-1.102,0.368-1.457-0.099l-3.204-4.222l0.001-0.002
		l-6.17,2.244c-0.499,0.181-0.942,0.459-1.314,0.806c-0.772,0.718-1.237,1.737-1.237,2.836v6.005c0,0.534,0.432,0.967,0.966,0.969
		c0.001,0,0.002,0,0.002,0h31.003c0.001,0,0.002,0,0.002,0C51.038,56.797,51.47,56.364,51.47,55.83z"/>
	<path style="fill:none;stroke:#DFDFDD;stroke-width:1.5;stroke-linecap:round;stroke-linejoin:round;stroke-miterlimit:10;" d="
		M33.983,48.442c-0.042,0-0.083-0.004-0.123-0.012l-0.797,8.369h3.875l-0.797-8.369c-0.04,0.007-0.081,0.012-0.123,0.012H33.983z"/>
	<path style="fill:none;stroke:#DFDFDD;stroke-width:1.5;stroke-linecap:round;stroke-linejoin:round;stroke-miterlimit:10;" d="
		M35,45.173l-1.695,1.695v0.895c0,0.332,0.239,0.608,0.555,0.666c0.04,0.007,0.081,0.012,0.123,0.012h2.034
		c0.042,0,0.083-0.004,0.123-0.012c0.316-0.058,0.555-0.334,0.555-0.666v-0.895L35,45.173L35,45.173z"/>
	<path style="fill:none;stroke:#DFDFDD;stroke-width:1.5;stroke-linecap:round;stroke-linejoin:round;stroke-miterlimit:10;" d="
		M26.682,26.363c0.363-0.363,0.567-0.856,0.567-1.37v-2.322c0-0.449,0.301-0.838,0.738-0.941c0.968-0.229,2.8-0.589,4.959-0.661
		c-2.091-0.093-3.759-1.817-3.759-3.931c0-2.174,1.762-3.936,3.936-3.936h-1.029c-4.281,0-7.751,3.47-7.751,7.751v2.303
		c0,1.041,0.168,2.076,0.497,3.064l0.323,0.968c0.099,0.296,0.149,0.607,0.149,0.919v0.331c0-0.514,0.204-1.007,0.567-1.37
		L26.682,26.363z"/>
	<path style="fill:none;stroke:#DFDFDD;stroke-width:1.5;stroke-linecap:round;stroke-linejoin:round;stroke-miterlimit:10;" d="
		M45.657,15.139v8.116c0,1.041-0.168,2.076-0.497,3.064l-0.323,0.968c-0.099,0.296-0.149,0.607-0.149,0.919v0
		c0-0.312,0.05-0.623,0.149-0.919l0.323-0.968c0.329-0.988,0.497-2.022,0.497-3.064L45.657,15.139c0-1.07-0.867-1.938-1.938-1.938h0
		C44.79,13.201,45.657,14.069,45.657,15.139z"/>
	
		<rect x="44.688" y="28.702" style="fill:none;stroke:#DFDFDD;stroke-width:1.5;stroke-linecap:round;stroke-linejoin:round;stroke-miterlimit:10;" width="0" height="0"/>
	<path style="fill:none;stroke:#DFDFDD;stroke-width:1.5;stroke-linecap:round;stroke-linejoin:round;stroke-miterlimit:10;" d="
		M29.187,17.137c0,2.114,1.667,3.839,3.759,3.931c2.951-0.098,6.513,0.346,9.316,2.407c0.315,0.232,0.489,0.612,0.489,1.004v0.515
		c0,0.514,0.204,1.007,0.567,1.37l0.803,0.803c0.363,0.363,0.567,0.856,0.567,1.37v0.166h0v-0.497v0c0-0.312,0.05-0.623,0.149-0.919
		l0.323-0.968c0.329-0.988,0.497-2.022,0.497-3.064v-8.116c0-1.07-0.868-1.938-1.938-1.938H33.123
		C30.949,13.201,29.187,14.963,29.187,17.137z"/>
	<path style="fill:none;stroke:#DFDFDD;stroke-width:1.5;stroke-linecap:round;stroke-linejoin:round;stroke-miterlimit:10;" d="
		M35,45.173l5.529-3.407c0.091-0.056,0.186-0.095,0.284-0.118v-4.226C39.194,38.638,37.181,39.36,35,39.36
		c-2.181,0-4.194-0.721-5.813-1.938v4.226c0.098,0.023,0.193,0.062,0.284,0.118L35,45.173z"/>
	
		<polygon style="fill:none;stroke:#DFDFDD;stroke-width:1.5;stroke-linecap:round;stroke-linejoin:round;stroke-miterlimit:10;" points="
		35,45.173 35,45.173 35,45.173 	"/>
	<path style="fill:none;stroke:#DFDFDD;stroke-width:1.5;stroke-linecap:round;stroke-linejoin:round;stroke-miterlimit:10;" d="
		M30.453,48.163c0.355,0.468,1.041,0.515,1.457,0.099l1.395-1.395L35,45.173l0,0l-5.529-3.407c-0.091-0.056-0.186-0.095-0.284-0.118
		c-0.432-0.103-0.898,0.102-1.099,0.527l-0.837,1.764l-0.001,0.002L30.453,48.163z"/>
	<path style="fill:none;stroke:#DFDFDD;stroke-width:1.5;stroke-linecap:round;stroke-linejoin:round;stroke-miterlimit:10;" d="
		M35,45.173L35,45.173l1.695,1.695l1.395,1.395c0.415,0.415,1.102,0.368,1.457-0.099l3.204-4.222l-0.001-0.003l-0.837-1.763
		c-0.202-0.425-0.668-0.63-1.099-0.527c-0.098,0.023-0.193,0.062-0.284,0.118L35,45.173z"/>
	<path style="fill:none;stroke:#DFDFDD;stroke-width:1.5;stroke-linecap:round;stroke-linejoin:round;stroke-miterlimit:10;" d="
		M40.813,37.422c2.353-1.768,3.875-4.581,3.875-7.751v-0.969v0v-0.166c0-0.514-0.204-1.007-0.567-1.37l-0.803-0.803
		c-0.363-0.363-0.567-0.856-0.567-1.37v-0.515c0-0.391-0.174-0.772-0.489-1.004c-2.802-2.061-6.365-2.504-9.316-2.407
		c-2.159,0.071-3.991,0.432-4.959,0.661c-0.437,0.103-0.738,0.493-0.738,0.941v2.322c0,0.514-0.204,1.007-0.567,1.37l-0.803,0.803
		c-0.363,0.363-0.567,0.856-0.567,1.37v0.166v0.969c0,3.169,1.522,5.983,3.875,7.751c1.619,1.216,3.632,1.938,5.813,1.938
		C37.181,39.36,39.194,38.638,40.813,37.422z"/>
</g>
</svg>
