<?xml version="1.0" encoding="UTF-8"?> <svg xmlns="http://www.w3.org/2000/svg" viewBox="0 0 100.75 89.75"><defs><style>.cls-1{fill:#f4f4f4;}.cls-2{fill:none;}.cls-2,.cls-3{stroke:#000;stroke-linecap:round;stroke-linejoin:round;stroke-width:0.75px;}.cls-3{fill:#d3353e;}</style></defs><title>Asset 2</title><g id="Layer_2" data-name="Layer 2"><g id="Layer_1-2" data-name="Layer 1"><path class="cls-1" d="M32.75,34.33l29.63.05s6,0,6,4v6.13h-40l.41-8.22Z"></path><path class="cls-2" d="M41.38,34.38s-3-15,8-15,7,15,7,15"></path><path class="cls-2" d="M38.38,68.38h-5s-5,0-5-7v-24s0-3,6-3c9.44,0,18.89-.09,28.33,0,2.8,0,5.67.54,5.67,4v12"></path><path class="cls-2" d="M68.38,55.38v6s0,5-6,5h-17"></path><path class="cls-2" d="M57.38,17.38a10.82,10.82,0,0,1,4,6c1,4,0,11,0,11"></path><polyline class="cls-2" points="23.38 4.38 23.38 16.38 27.38 20.38"></polyline><polyline class="cls-2" points="5.38 25.38 17.38 25.38 24.38 31.38"></polyline><line class="cls-2" x1="24.38" y1="41.38" x2="8.38" y2="41.38"></line><polyline class="cls-2" points="23.38 51.38 17.38 51.38 11.38 56.38 3.38 56.38"></polyline><polyline class="cls-2" points="24.38 61.38 18.38 61.38 8.38 70.38"></polyline><polyline class="cls-2" points="26.38 69.38 22.38 73.38 22.38 82.38"></polyline><polyline class="cls-2" points="73.38 69.38 77.38 73.38 77.38 87.38"></polyline><polyline class="cls-2" points="76.38 58.38 84.38 67.38 91.38 67.38"></polyline><polyline class="cls-2" points="74.38 51.38 80.38 51.38 86.38 58.38 93.38 58.38"></polyline><polyline class="cls-2" points="74.38 41.38 81.38 41.38 86.38 35.38 93.38 35.38"></polyline><polyline class="cls-2" points="72.38 29.38 78.38 29.38 89.38 18.38 89.38 11.38"></polyline><polyline class="cls-2" points="72.38 19.38 76.38 16.38 76.38 4.38"></polyline><circle class="cls-3" cx="4.38" cy="41.38" r="4"></circle><circle class="cls-3" cx="6.38" cy="73.38" r="4"></circle><circle class="cls-3" cx="22.38" cy="85.38" r="4"></circle><circle class="cls-3" cx="96.38" cy="58.38" r="4"></circle><circle class="cls-3" cx="96.38" cy="35.38" r="4"></circle><circle class="cls-3" cx="76.38" cy="4.38" r="4"></circle><circle class="cls-3" cx="49.38" cy="53.38" r="4"></circle><line class="cls-3" x1="49.38" y1="57.38" x2="49.38" y2="62.38"></line><path class="cls-2" d="M53.38,15.37c-.5-.12-1-.22-1.51-.29A16.67,16.67,0,0,0,43,16.18a11.46,11.46,0,0,0-5.52,5.13,16.09,16.09,0,0,0-1.58,7.33,20.5,20.5,0,0,0,.44,5.74"></path><line class="cls-2" x1="28.38" y1="44.38" x2="68.38" y2="44.38"></line></g></g></svg> 