<?xml version="1.0" encoding="UTF-8"?> <svg xmlns="http://www.w3.org/2000/svg" width="52" height="44" viewBox="0 0 52 44"><g><g><g><path fill="#dadddf" d="M10.798 25.223a1.006 1.006 0 0 0-.708-.293c-.263 0-.52.107-.707.293a1.008 1.008 0 0 0-.293.707c0 .265.107.522.293.709.186.186.444.292.707.292.264 0 .522-.106.708-.292a1.01 1.01 0 0 0 .293-.709c0-.263-.107-.52-.293-.707z"></path></g><g><path fill="#dadddf" d="M20.228 25.223a1.008 1.008 0 0 0-.708-.293c-.263 0-.52.107-.707.293a1.008 1.008 0 0 0-.293.707c0 .265.107.522.293.709.186.186.444.292.707.292.263 0 .522-.106.708-.292.186-.187.293-.445.293-.709 0-.263-.107-.52-.293-.707z"></path></g><g><path fill="#dadddf" d="M18.401 30.724a1 1 0 0 0-1.225.709 2.452 2.452 0 0 1-2.364 1.817 2.452 2.452 0 0 1-2.365-1.817 1 1 0 1 0-1.933.516 4.455 4.455 0 0 0 4.298 3.302 4.455 4.455 0 0 0 4.298-3.302 1 1 0 0 0-.709-1.225z"></path></g><g><path fill="#dadddf" d="M25.61.1a1 1 0 0 0-1 1v6.352a1 1 0 1 0 2.001 0V1.1a1 1 0 0 0-1-1.001z"></path></g><g><path fill="#dadddf" d="M26.318 10.283a1.004 1.004 0 0 0-1.416 0 1.007 1.007 0 0 0-.292.707c0 .263.106.522.292.708.187.186.444.293.708.293.263 0 .522-.107.708-.293.186-.186.293-.445.293-.708 0-.263-.107-.52-.293-.707z"></path></g><g><path fill="#dadddf" d="M19.512 9.195l-2.554-2.552a1 1 0 0 0-1.415 1.415l2.555 2.552a.997.997 0 0 0 1.414 0 1 1 0 0 0 0-1.415z"></path></g><g><path fill="#dadddf" d="M35.683 6.643a1 1 0 0 0-1.415 0l-2.715 2.718a1 1 0 0 0 1.415 1.414l2.716-2.717a1 1 0 0 0 0-1.415z"></path></g><g><path fill="#dadddf" d="M39.706 40.859c-6.821 1.827-13.857-2.235-15.685-9.055a12.723 12.723 0 0 1 1.28-9.718 12.996 12.996 0 0 1 1.097-1.61 12.711 12.711 0 0 1 6.678-4.357 12.782 12.782 0 0 1 3.312-.438c5.654 0 10.842 3.779 12.373 9.493 1.828 6.821-2.235 13.857-9.055 15.685zm-24.899.443c-7.061 0-12.806-5.745-12.806-12.806 0-7.062 5.745-12.807 12.806-12.807 3.656 0 7.08 1.532 9.509 4.229-.265.375-.516.764-.748 1.167a14.71 14.71 0 0 0-1.48 11.236 14.734 14.734 0 0 0 2.234 4.747 12.747 12.747 0 0 1-9.515 4.234zm35.887-16.645c-2.113-7.887-10.249-12.584-18.135-10.47a14.71 14.71 0 0 0-6.966 4.164 14.731 14.731 0 0 0-10.786-4.662C6.642 13.689 0 20.33 0 28.496s6.643 14.807 14.807 14.807c4.127 0 8.001-1.69 10.797-4.674a14.872 14.872 0 0 0 10.79 4.669c1.265 0 2.551-.164 3.83-.506 7.886-2.114 12.583-10.25 10.47-18.135z"></path></g><g><path fill="#dadddf" d="M33.456 26.529a2.172 2.172 0 0 0-2.657-1.535 2.172 2.172 0 0 0-1.535 2.658 1.001 1.001 0 0 0 1.933-.518.17.17 0 0 1 .326-.087 1 1 0 1 0 1.933-.518z"></path></g><g><path fill="#dadddf" d="M42.517 24.1a2.156 2.156 0 0 0-1.011-1.318 2.156 2.156 0 0 0-1.647-.217c-.56.15-1.028.509-1.317 1.01a2.156 2.156 0 0 0-.217 1.648 1 1 0 0 0 1.933-.518c-.015-.056 0-.1.017-.129a.165.165 0 0 1 .102-.078c.056-.015.1 0 .129.017a.166.166 0 0 1 .078.102 1 1 0 1 0 1.933-.518z"></path></g><g><path fill="#dadddf" d="M41.638 30.372a1 1 0 0 0-1.933.518 2.388 2.388 0 0 1-1.686 2.921 2.37 2.37 0 0 1-1.81-.238 2.37 2.37 0 0 1-1.112-1.449 1 1 0 1 0-1.933.518 4.358 4.358 0 0 0 2.044 2.664 4.36 4.36 0 0 0 3.329.438 4.392 4.392 0 0 0 3.101-5.372z"></path></g></g></g></svg> 