<?xml version="1.0" encoding="UTF-8"?> <svg xmlns="http://www.w3.org/2000/svg" xmlns:xlink="http://www.w3.org/1999/xlink" width="29" height="26" viewBox="0 0 29 26"><defs><path id="zuyta" d="M736.773 676.312l-1.38-1.332a.576.576 0 0 0-.799.003.54.54 0 0 0 .003.778l1.38 1.332a.571.571 0 0 0 .8-.003.54.54 0 0 0-.004-.778z"></path><path id="zuytb" d="M733.986 673.621a.576.576 0 0 0-.8 0v.001a.54.54 0 0 0 0 .778c.11.107.255.161.4.161.144 0 .29-.054.4-.161a.54.54 0 0 0 0-.779z"></path><path id="zuytc" d="M723.126 663.257l-1.556-1.512c.176.036.358.056.542.056h.013l1.554-.007a.558.558 0 0 0 .564-.553.559.559 0 0 0-.566-.548h-.003l-1.554.007h-.007a1.45 1.45 0 0 1-1.015-.407 1.37 1.37 0 0 1-.424-.991v-.171h3.881c.73 0 1.432.297 1.93.816l.022.024zm-.144 2.788c-.39.38-1.026.38-1.416 0l-2.846-2.765-.001-.001-.554-.538a.955.955 0 0 1 0-1.377c.195-.19.452-.284.709-.284.256 0 .513.095.708.284l3.4 3.304a.953.953 0 0 1 0 1.377zm-2.223 2.155a1.02 1.02 0 0 1-1.414 0l-2.84-2.766a.954.954 0 0 1 0-1.376 1.01 1.01 0 0 1 .706-.285c.256 0 .512.095.707.285l1.295 1.26 1.546 1.505a.954.954 0 0 1 0 1.377zm-2.213 2.154a1.02 1.02 0 0 1-1.414 0l-1.528-1.487-.76-.74a.956.956 0 0 1 0-1.376c.19-.184.44-.285.707-.285.267 0 .518.101.707.285l2.288 2.227a.954.954 0 0 1 0 1.376zm-2.223 2.155a1.003 1.003 0 0 1-.705.285c-.266 0-.517-.101-.705-.285l-1.524-1.487a.958.958 0 0 1 0-1.376c.189-.184.44-.286.705-.286.267 0 .517.102.705.286l1.524 1.487a.958.958 0 0 1 0 1.376zm12.847 3.654l5.485-5.339c.83-.808.83-2.124 0-2.933a2.134 2.134 0 0 0-1.027-.553 2.033 2.033 0 0 0-.426-2.34 2.134 2.134 0 0 0-1.145-.578 2.037 2.037 0 0 0-.516-2.116 2.139 2.139 0 0 0-1.143-.576 2.033 2.033 0 0 0-.517-2.118 2.147 2.147 0 0 0-1.507-.607c-.361 0-.709.087-1.017.251l-.055-.057a3.822 3.822 0 0 0-2.753-1.167h-4.44a.558.558 0 0 0-.566.55v.722c0 .289.05.57.147.835a2.178 2.178 0 0 0-.818-.158c-.57 0-1.104.216-1.507.607a2.037 2.037 0 0 0-.515 2.118c-.42.07-.822.261-1.145.576a2.033 2.033 0 0 0-.517 2.116c-.43.072-.828.27-1.143.577a2.037 2.037 0 0 0-.426 2.34c-.386.085-.741.275-1.028.554a2.038 2.038 0 0 0 0 2.933l1.128 1.098-5.553 5.405a.54.54 0 0 0 0 .779.572.572 0 0 0 .8 0l5.606-5.458c.317.177.678.27 1.053.27.57 0 1.104-.215 1.507-.607.437-.425.644-.991.62-1.55l.087.002c.545 0 1.09-.202 1.506-.606a2.033 2.033 0 0 0 .622-1.55l.085.001c.546 0 1.091-.202 1.507-.606a2.033 2.033 0 0 0 .622-1.55l.085.002c.545 0 1.09-.202 1.506-.607.78-.76.828-1.967.142-2.78l3.753-3.654c.189-.184.44-.285.707-.285.267 0 .518.1.707.285a.954.954 0 0 1 0 1.376l-.554.539-2.007 1.954a.54.54 0 0 0 0 .779.572.572 0 0 0 .8 0l2.007-1.955a1.02 1.02 0 0 1 1.414 0c.39.38.39.997 0 1.377l-.553.538-1.455 1.416a.54.54 0 0 0 0 .778.572.572 0 0 0 .8 0l1.454-1.415c.189-.184.44-.285.707-.285.267 0 .518.1.707.285a.954.954 0 0 1 0 1.376l-.76.74-.694.676a.54.54 0 0 0 0 .778.572.572 0 0 0 .8 0l.694-.677a1.02 1.02 0 0 1 1.414 0c.39.38.39.998 0 1.377l-5.485 5.34a7.76 7.76 0 0 1-5.154 2.185.573.573 0 0 0-.38.162l-5.067 4.95a.54.54 0 0 0 .001.778c.11.107.255.16.4.16.144 0 .29-.053.4-.161l3.727-3.641c.946.59 2.06.872 3.192.8l2.916 2.838a.572.572 0 0 0 .8 0 .54.54 0 0 0 0-.778l-3.101-3.02a.575.575 0 0 0-.446-.158l-.18.014a4.22 4.22 0 0 1-2.359-.5l.363-.355a8.895 8.895 0 0 0 5.688-2.497z"></path></defs><g><g transform="translate(-708 -658)"><g><use fill="#e31936" xlink:href="#zuyta"></use></g><g><use fill="#e31936" xlink:href="#zuytb"></use></g><g><use fill="#e31936" xlink:href="#zuytc"></use></g></g></g></svg> 