<?xml version="1.0" encoding="UTF-8"?> <svg xmlns="http://www.w3.org/2000/svg" width="124" height="60" viewBox="0 0 124 60" class="svg-farro-logo"><g fill="#000" fill-rule="evenodd"><path d="M123.834 1.698v1.698l-12.724-.113-12.78-.17-.168-1.585L97.994 0h25.84v1.698zm0 56.887V60H98.05v-2.83h25.784v1.415zm0-50.094v1.698l-12.724-.114-12.78-.169-.168-1.585-.168-1.529h25.84v1.699zm0 6.226v1.698l-12.724-.113-12.78-.17-.168-1.585-.168-1.528h25.84v1.698zm0 6.226v1.699l-12.724-.114-12.78-.17-.168-1.584-.168-1.529h25.84v1.698zm0 6.227v1.698l-12.724-.113-12.78-.17L98.162 27l-.168-1.528h25.84v1.698zm0 6.226v1.698H98.05v-3.396h25.784v1.698zm0 6.227v1.698h-12.612c-10.706 0-12.723-.113-12.948-.85-.224-.452-.224-1.245 0-1.697.225-.736 2.242-.85 12.948-.85h12.612v1.699zm0 6.509v1.415H98.05v-2.83h25.784v1.415zm0 5.943v1.699H98.05v-1.302c0-.736.168-1.529.393-1.698.168-.227 5.997-.397 12.89-.397h12.5v1.698zM21.872 7.759c1.028 1.137 1.37 2.16 1.256 3.411-.228 2.161-1.884 2.73-2.455.796-.856-2.558-3.71-2.956-5.195-.739-.914 1.422-3.654 10.462-3.654 12.225 0 .682.856.853 4.053.853 2.855.057 4.168.284 4.51.853.972 1.478.286 1.933-4.281 2.672-2.455.398-4.625.853-4.74.967-.342.341-.57 2.9-1.027 9.155-.228 3.98-.057 7.448.57 11.6.915 5.799.686 7.448-.855 7.448-1.77 0-3.37-12.68-2.684-21.55.229-3.241.286-6.084.172-6.312-.114-.227-1.485-.284-2.97-.17-2.226.227-2.911.057-3.767-.853-.743-.796-.971-1.592-.686-2.388.343-1.08.686-1.194 2.57-.91 3.71.568 5.595-.114 5.995-2.16 2.112-10.918 4.167-15.751 6.85-16.32 3.255-.682 4.91-.341 6.338 1.422zm9.42 20.526c1.37.512 2.799.74 3.198.626 1.085-.455 1.37 1.535.8 5.402-.857 5.572-.914 8.642-.115 10.064.857 1.535 0 2.957-1.713 2.957-1.256 0-1.884-1.934-1.94-5.8V38.86l-1.371 1.82c-2.17 2.786-6.51 6.653-7.48 6.653-.513 0-1.484-.398-2.226-.91-1.256-.91-1.313-1.194-.97-4.89.342-3.64 1.94-9.496 3.31-11.998 1.143-2.104 4.568-2.615 8.508-1.25zm-5.48 3.355c-1.37 1.308-3.94 9.098-3.597 11.259.17 1.137.457.966 3.426-1.877 1.77-1.763 3.996-4.378 4.967-5.913 1.598-2.56 1.655-2.787.742-3.412-1.941-1.308-4.11-1.365-5.538-.057zm62.975.455c4.11 4.435 1.713 11.884-4.796 14.954-5.253 2.502-8.165 1.194-8.222-3.582 0-2.445 1.313-7.562 2.34-9.211.287-.455.686-1.251.915-1.706.228-.455.913-1.251 1.54-1.706 2.74-1.99 5.539-1.535 8.223 1.251zm-6.68 2.274c-2.056 2.787-3.654 7.165-3.37 9.382.172 1.422.344 1.593 2.114 1.422 2.17-.17 5.366-2.274 6.394-4.208 1.428-2.672.229-7.05-2.398-8.415-.8-.455-1.313-.114-2.74 1.82v-.001zM45.28 31.242c.228.853.457 2.786.457 4.265.057 1.478.114 2.729.17 2.729.058 0 .629-.91 1.314-1.99 2.855-4.549 12.162-8.246 10.563-4.151-.172.398-1.485 1.137-2.97 1.592-1.883.626-3.31 1.592-4.852 3.469-1.256 1.478-2.341 3.013-2.398 3.411a21.76 21.76 0 0 1-.857 2.502c-.514 1.194-.514 1.99-.114 2.616.685 1.194-.228 2.217-2.055 2.217-1.37 0-1.6-1.08-1.313-6.823 0-1.08-.23-3.753-.571-5.914-.457-2.9-.457-4.093.057-4.662 1.027-1.251 2.17-.91 2.569.74v-.001zm17.014-.625c.17.511.514 2.274.685 3.98l.4 3.127 1.256-1.933c3.083-4.435 11.76-7.563 10.22-3.64-.172.456-1.256 1.024-2.398 1.252-2.398.398-7.537 5.345-7.537 7.164 0 .569-.228 1.137-.513 1.308-.743.455-1.085 3.014-.571 3.867.628.966-.514 2.16-2.113 2.16-1.484 0-1.6-.568-1.37-7.676 0-1.592-.23-4.208-.571-5.913-.4-2.218-.4-3.298.057-3.81.856-1.08 1.998-1.024 2.455.114z"></path></g></svg> 